<svg xmlns="http://www.w3.org/2000/svg" viewBox="0 0 1200 628">
  <rect width="1200" height="628" fill="#009739"/>
  <g fill="#FEDD00">
    <polygon points="120,120 136,160 180,164 146,190 156,232 120,210 84,232 94,190 60,164 104,160"/>
    <polygon points="300,220 312,248 344,250 320,268 328,298 300,282 272,298 280,268 256,250 288,248"/>
    <polygon points="520,120 532,148 564,150 540,168 548,198 520,182 492,198 500,168 476,150 508,148"/>
    <polygon points="880,120 892,148 924,150 900,168 908,198 880,182 852,198 860,168 836,150 868,148"/>
    <polygon points="1040,220 1052,248 1084,250 1060,268 1068,298 1040,282 1012,298 1020,268 996,250 1028,248"/>
  </g>
  <rect x="420" y="250" width="360" height="128" rx="12" fill="#002776" opacity=".9"/>
  <text x="600" y="330" text-anchor="middle" font-family="Montserrat,Arial" font-size="52" fill="#fff">BRASIL</text>
</svg>